<?xml version="1.0" encoding="utf-8"?>

<svg version="1.1" id="VW-LOGO" xmlns="http://www.w3.org/2000/svg" xmlns:xlink="http://www.w3.org/1999/xlink" x="0px" y="0px"
	 viewBox="0 0 23.13 15.94" style="enable-background:new 0 0 23.13 15.94;" xml:space="preserve">
<style type="text/css">
	.st0{fill:url(#SVGID_1_);}
	.st1{fill:url(#SVGID_2_);}
</style>
<g>
	<linearGradient id="SVGID_1_" gradientUnits="userSpaceOnUse" x1="12.6881" y1="21.7599" x2="10.7172" y2="-4.7067">
		<stop  offset="0" style="stop-color:#B2D8A5"/>
		<stop  offset="0.9989" style="stop-color:#0099B6"/>
	</linearGradient>
	<path class="st0" d="M21.62,2.06c-0.94-0.55-2.11,0.18-2.11,1.26l0,1.48c0,1.2-1.37,1.56-1.89,0.67l-0.06-0.11l-0.38-0.7
		c-0.7-1.28-2.53-1.3-3.26-0.04l-0.37,0.64l-0.28,0.48c-0.47,0.82-1.73,0.49-1.73-0.46V3.62c0-1.08-0.87-1.95-1.95-1.95H9.21
		c-0.75,0-1.43,0.4-1.81,1.04L4.59,7.56C4.41,7.87,3.94,7.74,3.94,7.39V3.25c0-0.91-0.74-1.64-1.64-1.64H2.15
		c-0.96,0-1.74,0.78-1.74,1.74v9.82c0,1.41,1.14,2.55,2.55,2.55h0.11c0.54,0,1.03-0.29,1.3-0.75l2.13-3.68
		c0.41-0.71,1.5-0.42,1.5,0.4v2.24c0,1.03,0.83,1.86,1.86,1.86l0.11,0c0.96,0,1.86-0.52,2.34-1.35l2.26-3.91
		c0.42-0.73,1.47-0.73,1.9,0l2.37,4.1c0.41,0.72,1.18,1.16,2.01,1.16l0.28,0c1.06,0,1.91-0.86,1.91-1.91V4.51
		C23.04,3.47,22.47,2.55,21.62,2.06z"/>
	<linearGradient id="SVGID_2_" gradientUnits="userSpaceOnUse" x1="18.4532" y1="21.3306" x2="16.4823" y2="-5.136">
		<stop  offset="0" style="stop-color:#B2D8A5"/>
		<stop  offset="0.9989" style="stop-color:#0099B6"/>
	</linearGradient>
	<circle class="st1" cx="16.96" cy="1.28" r="1.1"/>
</g>
</svg>
